<svg version="1.2" xmlns="http://www.w3.org/2000/svg" viewBox="0 0 150 24" width="150" height="24">
	<title>New Project</title>
	<style>
		.s0 { fill: #1677ff } 
		.s1 { fill: #000000 } 
	</style>
	<path fill-rule="evenodd" class="s0" d="m0 12c0-6.6 5.4-12 12-12 6.6 0 12 5.4 12 12 0 6.6-5.4 12-12 12-6.6 0-12-5.4-12-12zm12 6c3.3 0 6-2.7 6-6 0-3.3-2.7-6-6-6-3.3 0-6 2.7-6 6 0 3.3 2.7 6 6 6z"/>
	<path id="MY.HEMIS.UZ" class="s1" aria-label="MY.HEMIS.UZ"  d="m34 5.5h3.1l3.9 10.3 3.9-10.3h3v13.5h-2.3v-4.5l0.2-5.9-4 10.4h-1.7l-4-10.4 0.3 5.9v4.5h-2.4zm17.7 0l3.1 6.4 3.1-6.4h2.6l-4.5 8.5v5h-2.4v-5l-4.5-8.5zm9.3 11.1q0.7 0 1 0.4 0.3 0.3 0.3 0.9 0 0.5-0.3 0.9-0.3 0.3-1 0.3-0.6 0-0.9-0.3-0.4-0.4-0.4-0.9 0-0.6 0.4-0.9 0.3-0.4 0.9-0.4zm14.9-11.1v13.5h-2.4v-6h-6v6h-2.4v-13.5h2.4v5.6h6v-5.6zm10.7 5.6v1.9h-5.5v4.1h6.4v1.9h-8.8v-13.5h8.8v1.9h-6.4v3.7zm2.8-5.6h3l3.9 10.4 3.9-10.4h3.1v13.5h-2.4v-4.4l0.3-6-4 10.4h-1.7l-4-10.4 0.2 6v4.4h-2.3zm19.1 0v13.5h-2.3v-13.5zm9.9 10q0-0.9-0.6-1.3-0.6-0.5-2.3-1-1.6-0.5-2.6-1.1-1.8-1.2-1.8-3 0-1.7 1.3-2.7 1.4-1.1 3.5-1.1 1.4 0 2.5 0.5 1.1 0.6 1.7 1.5 0.7 1 0.7 2.2h-2.4q0-1.1-0.6-1.7-0.7-0.6-1.9-0.6-1.2 0-1.8 0.5-0.7 0.5-0.7 1.4 0 0.7 0.7 1.2 0.7 0.5 2.3 1 1.6 0.4 2.5 1 1 0.6 1.4 1.4 0.5 0.8 0.5 1.8 0 1.7-1.3 2.7-1.3 1-3.5 1-1.5 0-2.7-0.5-1.3-0.6-1.9-1.5-0.7-1-0.7-2.3h2.3q0 1.2 0.8 1.8 0.7 0.6 2.2 0.6 1.2 0 1.8-0.4 0.6-0.5 0.6-1.4zm5.6 1.1q0.6 0 1 0.4 0.3 0.4 0.3 0.9 0 0.5-0.3 0.9-0.4 0.3-1 0.3-0.6 0-0.9-0.3-0.4-0.4-0.4-0.9 0-0.5 0.4-0.9 0.3-0.4 0.9-0.4zm11.7-11.1h2.3v9q0 2.2-1.4 3.4-1.3 1.3-3.6 1.3-2.3 0-3.7-1.2-1.4-1.3-1.4-3.5v-9h2.4v9q0 1.4 0.6 2.1 0.7 0.7 2.1 0.7 2.7 0 2.7-2.8zm14 1.5l-7 10.1h7.2v1.9h-10v-1.5l7-10.1h-7v-1.9h9.8z"/>
</svg>