<svg width="94" height="40" viewBox="0 0 94 40" fill="none" xmlns="http://www.w3.org/2000/svg">
<path d="M20 0L37.3205 30H2.67949L20 0Z" fill="#9FE870"/>
<path d="M87.3789 28.877C83.4531 28.877 80.957 26.9434 80.7461 24.0254L80.7344 23.8613H83.6641L83.6758 23.9785C83.8164 25.3965 85.3281 26.334 87.4727 26.334C89.5117 26.334 90.9414 25.3262 90.9414 23.873V23.8613C90.9414 22.6426 90.0625 21.9043 87.8828 21.4355L86.0664 21.0605C82.6094 20.334 81.1094 18.7168 81.1094 16.1973V16.1855C81.1094 13.1621 83.7109 11.123 87.3672 11.123C91.1172 11.123 93.4492 13.1738 93.6602 15.8926L93.6719 16.0449H90.7773L90.7539 15.9043C90.543 14.5918 89.2891 13.6543 87.3555 13.666C85.4805 13.666 84.1445 14.5449 84.1445 15.9863V15.998C84.1445 17.1934 85 17.9434 87.1094 18.3887L88.9258 18.7754C92.4883 19.5254 93.9766 20.9551 93.9766 23.5098V23.5215C93.9766 26.8145 91.4336 28.877 87.3789 28.877Z" fill="black"/>
<path d="M60.0391 28.4551V11.5449H63.5078L68.5938 24.5527H68.793L73.8672 11.5449H77.3359V28.4551H74.6172V16.4316H74.4062L69.7188 28.4551H67.6562L62.9688 16.4316H62.7695V28.4551H60.0391Z" fill="black"/>
<path d="M46 28.4551V11.5449H49.0234V25.9121H56.7812V28.4551H46Z" fill="black"/>
</svg>