<svg width="32" height="32" viewBox="0 0 32 32" fill="none" xmlns="http://www.w3.org/2000/svg">
<g clip-path="url(#clip0_4522_11545)">
<path d="M16.0075 32.0151C16.0075 29.8007 15.5807 27.7197 14.7269 25.7721C13.8998 23.8246 12.766 22.1304 11.3254 20.6898C9.88474 19.2491 8.19037 18.1152 6.24294 17.2882C4.29551 16.4344 2.21453 16.0075 0 16.0075C2.21453 16.0075 4.29551 15.594 6.24294 14.767C8.19037 13.9132 9.88474 12.766 11.3254 11.3253C12.766 9.88467 13.8998 8.19053 14.7269 6.24294C15.5807 4.29535 16.0075 2.21438 16.0075 0C16.0075 2.21438 16.4212 4.29535 17.248 6.24294C18.1019 8.19053 19.249 9.88467 20.6896 11.3253C22.1303 12.766 23.8247 13.9132 25.7721 14.767C27.7198 15.594 29.8008 16.0075 32.015 16.0075C29.8008 16.0075 27.7198 16.4344 25.7721 17.2882C23.8247 18.1152 22.1303 19.2491 20.6896 20.6898C19.249 22.1304 18.1019 23.8246 17.248 25.7721C16.4212 27.7197 16.0075 29.8007 16.0075 32.0151Z" fill="url(#paint0_radial_4522_11545)"/>
</g>
<defs>
<radialGradient id="paint0_radial_4522_11545" cx="0" cy="0" r="1" gradientUnits="userSpaceOnUse" gradientTransform="translate(-9.82433 15.9674) scale(34.6188 276.302)">
<stop offset="0.385135" stop-color="#9E72BA"/>
<stop offset="0.734299" stop-color="#D65C67"/>
<stop offset="0.931035" stop-color="#D6635C"/>
</radialGradient>
<clipPath id="clip0_4522_11545">
<rect width="32" height="32" fill="white"/>
</clipPath>
</defs>
</svg>
