<svg version="1.2" xmlns="http://www.w3.org/2000/svg" viewBox="0 0 107 24" width="107" height="24">
	<title>UniLibraryLogo-svg</title>
	<defs>
		<clipPath clipPathUnits="userSpaceOnUse" id="cp1">
			<path d="m0 0h106.8v24h-106.8z"/>
		</clipPath>
		<linearGradient id="g1" x2="1" gradientUnits="userSpaceOnUse" gradientTransform="matrix(14.129,19.397,-18.519,13.49,4.801,4.8)">
			<stop offset="0" stop-color="#57aeff"/>
			<stop offset="1" stop-color="#aee7ff"/>
		</linearGradient>
		<linearGradient id="g2" x2="1" gradientUnits="userSpaceOnUse" gradientTransform="matrix(-14.129,19.397,-18.519,-13.49,14.4,0)">
			<stop offset="0" stop-color="#fc4747" stop-opacity=".3"/>
			<stop offset="1" stop-color="#fc4747" stop-opacity="1"/>
		</linearGradient>
	</defs>
	<style>
		.s0 { fill: url(#g1) } 
		.s1 { fill: url(#g2) } 
		.s2 { fill: #ffffff } 
	</style>
	<g id="Clip-Path" clip-path="url(#cp1)">
		<g>
			<path class="s0" d="m4.8 4.8h10.8c1.7 0 2.5 0 3.1 0.5 0.5 0.6 0.5 1.4 0.5 3.1v12c0 1.7 0 2.5-0.5 3.1-0.6 0.5-1.4 0.5-3.1 0.5h-10.8z"/>
			<path class="s1" d="m0 3.6c0-1.7 0-2.5 0.5-3.1 0.6-0.5 1.4-0.5 3.1-0.5h10.8v19.2h-10.8c-1.7 0-2.5 0-3.1-0.5-0.5-0.6-0.5-1.4-0.5-3.1z"/>
			<path fill-rule="evenodd" class="s2" d="m26.8 6.7h4.2v2h-0.9v4.4q0 0.6 0.1 1 0.1 0.4 0.4 0.7 0.2 0.3 0.6 0.4 0.3 0.1 0.7 0.1 0.4 0 0.7-0.1 0.4-0.1 0.6-0.3 0.3-0.3 0.4-0.7 0.1-0.5 0.1-1.1v-4.4h-1.1v-2h4.3v2h-0.9v4.1q0 1.1-0.3 2-0.3 0.9-0.9 1.5-0.5 0.6-1.3 0.9-0.8 0.3-1.6 0.3-0.9 0-1.7-0.3-0.7-0.3-1.3-0.9-0.5-0.6-0.9-1.4-0.3-0.9-0.3-2v-4.2h-0.9zm17.1 6.4q0-0.6-0.3-0.9-0.3-0.4-0.8-0.4-0.4 0-0.8 0.2-0.4 0.2-0.7 0.6v2.8h1.2v1.9h-4.6v-1.9h1.1v-3.4h-1v-2h3.3v0.7q0.4-0.4 1-0.6 0.6-0.2 1.2-0.2 1.3 0 2 0.8 0.7 0.7 0.7 2.1v2.6h1.1v1.9h-3.4zm4.3-3.1h3.3v5.4h1v1.9h-4.3v-1.9h1.1v-3.4h-1.1zm1-2.4q0-0.2 0.1-0.5 0.1-0.2 0.3-0.4 0.1-0.1 0.3-0.2 0.3-0.1 0.5-0.1 0.3 0 0.5 0.1 0.2 0.1 0.4 0.2 0.2 0.2 0.3 0.4 0.1 0.3 0.1 0.5 0 0.3-0.1 0.5-0.1 0.2-0.3 0.4-0.2 0.2-0.4 0.3-0.2 0.1-0.5 0.1-0.2 0-0.5-0.1-0.2-0.1-0.3-0.3-0.2-0.2-0.3-0.4-0.1-0.2-0.1-0.5zm4.4-1.3h3.3v9h1.1v2h-4.4v-2h1.1v-7.1h-1.1zm5.6 3.7h3.3v5.4h1v1.9h-4.3v-1.9h1.1v-3.5h-1.1zm1-2.3q0-0.3 0.1-0.5 0.1-0.2 0.3-0.4 0.2-0.2 0.4-0.3 0.2-0.1 0.5-0.1 0.2 0 0.5 0.1 0.2 0.1 0.4 0.3 0.1 0.2 0.2 0.4 0.1 0.2 0.1 0.5 0 0.2-0.1 0.5-0.1 0.2-0.2 0.4-0.2 0.1-0.4 0.2-0.3 0.1-0.5 0.1-0.3 0-0.5-0.1-0.2-0.1-0.4-0.2-0.2-0.2-0.3-0.4-0.1-0.3-0.1-0.5zm4.2-1.3h3.2v3.8q0.4-0.2 0.8-0.3 0.4-0.1 0.8-0.1 0.8 0 1.5 0.3 0.7 0.3 1.2 0.8 0.5 0.5 0.8 1.2 0.3 0.7 0.3 1.5 0 0.8-0.3 1.5-0.3 0.7-0.8 1.2-0.5 0.5-1.2 0.8-0.7 0.3-1.5 0.3-0.4 0-0.8-0.1-0.4 0-0.8-0.2v0.2h-2.1v-9h-1.1zm4.7 5.4q-0.5 0-0.9 0.2-0.3 0.2-0.6 0.6v2.2q0.2 0.3 0.6 0.5 0.4 0.2 0.9 0.2 0.3 0 0.6-0.1 0.4-0.1 0.6-0.4 0.3-0.2 0.4-0.6 0.1-0.3 0.1-0.7 0-0.5-0.1-0.8-0.1-0.4-0.4-0.6-0.2-0.3-0.5-0.4-0.4-0.1-0.7-0.1zm11.5 0.9h-2v-0.8q-0.3 0-0.5 0.1-0.2 0-0.4 0.1-0.2 0.1-0.3 0.3-0.2 0.1-0.2 0.4v2.6h1.5v1.9h-4.8v-1.9h1.1v-3.4h-1.1v-2h3.3v0.6q0.3-0.3 0.7-0.4 0.4-0.2 0.8-0.2 0.5 0 1 0.1 0.5 0 0.9 0zm5.7 4.2q-0.3 0.2-0.5 0.3-0.2 0.1-0.4 0.1-0.2 0.1-0.4 0.1-0.2 0.1-0.5 0.1-0.6 0-1.2-0.2-0.5-0.2-0.8-0.5-0.4-0.3-0.6-0.7-0.2-0.5-0.2-1 0-0.5 0.2-0.9 0.2-0.4 0.6-0.7 0.4-0.3 0.9-0.5 0.5-0.2 1.2-0.2 0.5 0 0.9 0.1 0.4 0 0.8 0.1v-0.2q0-0.3-0.1-0.5-0.1-0.2-0.3-0.3-0.2-0.2-0.5-0.2-0.3-0.1-0.6-0.1-0.6 0-1.1 0.2-0.5 0.1-1 0.3l-0.7-1.3q0.7-0.5 1.5-0.8 0.8-0.3 1.7-0.3 0.7 0 1.2 0.2 0.6 0.1 1 0.5 0.5 0.3 0.7 0.9 0.2 0.5 0.2 1.3v2.7h1v1.9h-3zm-1.6-1.1q0.5 0 0.9-0.2 0.4-0.1 0.7-0.4v-0.9h-1.7q-0.2 0-0.3 0.1-0.2 0-0.3 0.1-0.1 0.1-0.2 0.2-0.1 0.2-0.1 0.3 0 0.4 0.3 0.6 0.2 0.2 0.7 0.2zm12.7-3.1h-2v-0.8q-0.3 0-0.5 0-0.2 0.1-0.4 0.2-0.2 0.1-0.3 0.2-0.1 0.2-0.2 0.4v2.7h1.5v1.9h-4.8v-1.9h1.1v-3.5h-1.1v-1.9h3.3v0.5q0.3-0.2 0.7-0.4 0.4-0.1 0.8-0.1 0.5 0 1 0 0.5 0 0.9 0zm1-2.6h3.6v1.9h-0.6l1 2.7 1.1-2.7h-0.6v-1.9h3.6v1.9h-0.8l-2.8 6.7h1.2v2h-4.5v-2h1.3l0.5-1.3-2.3-5.4h-0.7z"/>
		</g>
	</g>
</svg>