<svg width="107" height="24" viewBox="0 0 107 24" fill="none" xmlns="http://www.w3.org/2000/svg">
<g clip-path="url(#clip0_5038_12574)">
<path d="M4.80078 4.7998H15.6008C17.2978 4.7998 18.1463 4.7998 18.6736 5.32701C19.2008 5.85422 19.2008 6.70276 19.2008 8.3998V20.3998C19.2008 22.0968 19.2008 22.9454 18.6736 23.4726C18.1463 23.9998 17.2978 23.9998 15.6008 23.9998H4.80078V4.7998Z" fill="url(#paint0_linear_5038_12574)"/>
<path d="M0 3.6C0 1.90294 0 1.05442 0.527208 0.527208C1.05442 0 1.90294 0 3.6 0H14.4V19.2H3.6C1.90294 19.2 1.05442 19.2 0.527208 18.6728C0 18.1456 0 17.297 0 15.6V3.6Z" fill="url(#paint1_linear_5038_12574)"/>
<path d="M26.7578 6.74026H31.0328V8.67382H30.0555V13.0965C30.0555 13.4996 30.1 13.8418 30.189 14.1231C30.2828 14.4043 30.4117 14.634 30.5757 14.8121C30.7398 14.9903 30.9344 15.1215 31.1594 15.2059C31.3844 15.2856 31.6305 15.3254 31.8977 15.3254C32.1742 15.3254 32.425 15.2903 32.65 15.2199C32.8797 15.1496 33.0742 15.0301 33.2336 14.8613C33.3977 14.6879 33.5219 14.4582 33.6062 14.1723C33.6953 13.8863 33.7398 13.5278 33.7398 13.0965V8.67382H32.6078V6.74026H36.8828V8.67382H36.032V12.8223C36.032 13.5723 35.9242 14.2403 35.7086 14.8262C35.4929 15.4074 35.1953 15.8996 34.8156 16.3028C34.4406 16.7059 33.9977 17.0129 33.4867 17.2238C32.9805 17.4348 32.4367 17.5403 31.8555 17.5403C31.2789 17.5403 30.7398 17.4371 30.2382 17.2309C29.7367 17.0199 29.2984 16.7176 28.9234 16.3238C28.5531 15.9254 28.2602 15.4426 28.0445 14.8754C27.8289 14.3082 27.7211 13.666 27.7211 12.9488V8.67382H26.7578V6.74026ZM43.9352 13.209C43.9352 12.8012 43.8273 12.4824 43.6117 12.2528C43.3961 12.0183 43.1102 11.9012 42.7539 11.9012C42.5102 11.9012 42.264 11.9551 42.0156 12.0629C41.7672 12.1707 41.5257 12.3723 41.2914 12.6676V15.4731H42.4727V17.3996H37.9445V15.4731H39.0132V12.0418H37.9586V10.1153H41.2773V10.7551C41.582 10.516 41.9219 10.3285 42.2969 10.1926C42.6765 10.052 43.075 9.98164 43.4922 9.98164C44.3687 9.98164 45.0437 10.2278 45.5172 10.7199C45.9906 11.2074 46.2273 11.9223 46.2273 12.8645V15.4731H47.2609V17.3996H43.9352V13.209ZM48.2102 10.1153H51.4797V15.4731H52.4922V17.3996H48.2102V15.4731H49.307V12.0418H48.2102V10.1153ZM49.1945 7.7668C49.1945 7.59334 49.225 7.43164 49.2859 7.28164C49.3515 7.12696 49.4406 6.99334 49.5531 6.8809C49.6656 6.76834 49.7969 6.6793 49.9469 6.61366C50.1015 6.54808 50.2679 6.51526 50.4461 6.51526C50.6148 6.51526 50.7742 6.54808 50.9242 6.61366C51.0742 6.6793 51.2055 6.76834 51.3179 6.8809C51.4305 6.99334 51.5195 7.12696 51.5852 7.28164C51.6507 7.43164 51.6836 7.59334 51.6836 7.7668C51.6836 7.94026 51.6507 8.1043 51.5852 8.25898C51.5195 8.40898 51.4305 8.54026 51.3179 8.65276C51.2055 8.76526 51.0742 8.8543 50.9242 8.91994C50.7742 8.98558 50.6148 9.01834 50.4461 9.01834C50.2679 9.01834 50.1015 8.98558 49.9469 8.91994C49.7969 8.8543 49.6656 8.76526 49.5531 8.65276C49.4406 8.54026 49.3515 8.40898 49.2859 8.25898C49.225 8.1043 49.1945 7.94026 49.1945 7.7668ZM53.6172 6.45898H56.9007V15.4731H58.0257V17.3996H53.6172V15.4731H54.7422V8.38558H53.6172V6.45898ZM59.2492 10.1153H62.5186V15.4731H63.5314V17.3996H59.2492V15.4731H60.346V12.0418H59.2492V10.1153ZM60.2338 7.7668C60.2338 7.59334 60.2638 7.43164 60.325 7.28164C60.3904 7.12696 60.4798 6.99334 60.592 6.8809C60.7048 6.76834 60.8362 6.6793 60.9862 6.61366C61.1404 6.54808 61.3072 6.51526 61.4854 6.51526C61.654 6.51526 61.813 6.54808 61.963 6.61366C62.113 6.6793 62.2444 6.76834 62.3572 6.8809C62.4694 6.99334 62.5588 7.12696 62.6242 7.28164C62.6896 7.43164 62.7226 7.59334 62.7226 7.7668C62.7226 7.94026 62.6896 8.1043 62.6242 8.25898C62.5588 8.40898 62.4694 8.54026 62.3572 8.65276C62.2444 8.76526 62.113 8.8543 61.963 8.91994C61.813 8.98558 61.654 9.01834 61.4854 9.01834C61.3072 9.01834 61.1404 8.98558 60.9862 8.91994C60.8362 8.8543 60.7048 8.76526 60.592 8.65276C60.4798 8.54026 60.3904 8.40898 60.325 8.25898C60.2638 8.1043 60.2338 7.94026 60.2338 7.7668ZM64.4452 6.45898H67.6234V10.277C67.8766 10.1551 68.1364 10.0613 68.404 9.99574C68.671 9.9301 68.9452 9.89728 69.2266 9.89728C69.7654 9.89728 70.2646 9.99808 70.7242 10.1996C71.1838 10.4012 71.5798 10.6754 71.9122 11.0223C72.2452 11.3691 72.5056 11.7746 72.6928 12.2387C72.8854 12.7028 72.9814 13.1949 72.9814 13.7153C72.9814 14.2403 72.8872 14.7348 72.7 15.1988C72.517 15.6629 72.2596 16.0683 71.9266 16.4153C71.5936 16.7574 71.1976 17.0293 70.738 17.2309C70.279 17.4278 69.775 17.5262 69.2266 17.5262C68.9314 17.5262 68.65 17.4981 68.383 17.4418C68.1154 17.3856 67.8622 17.3059 67.6234 17.2028V17.3996H65.4646V8.38558H64.4452V6.45898ZM69.079 11.8379C68.7694 11.8379 68.4904 11.9082 68.242 12.0488C67.9984 12.1895 67.792 12.391 67.6234 12.6535V14.8332C67.7734 15.0582 67.9726 15.241 68.221 15.3816C68.4742 15.5176 68.7556 15.5856 69.0646 15.5856C69.304 15.5856 69.5314 15.5433 69.7468 15.459C69.9622 15.3699 70.15 15.2457 70.3096 15.0863C70.4734 14.9223 70.6024 14.7278 70.696 14.5028C70.7896 14.2731 70.8364 14.0153 70.8364 13.7293C70.8364 13.4387 70.7896 13.1762 70.696 12.9418C70.6024 12.7074 70.4758 12.5082 70.3162 12.3441C70.1572 12.1801 69.9694 12.0559 69.754 11.9715C69.5428 11.8824 69.3178 11.8379 69.079 11.8379ZM80.596 12.766H78.6202V12.0137C78.4282 12.0137 78.2524 12.0278 78.0928 12.0559C77.9338 12.0793 77.7928 12.1215 77.671 12.1824C77.554 12.2433 77.4532 12.3278 77.3686 12.4356C77.2888 12.5433 77.233 12.677 77.2 12.8363V15.4731H78.6838V17.3996H73.9306V15.4731H75.0202V12.0418H73.9444V10.1153H77.1862V10.6285C77.392 10.4645 77.6242 10.3379 77.8822 10.2488C78.1396 10.1598 78.421 10.1153 78.7258 10.1153C79.0354 10.1153 79.354 10.1176 79.6822 10.1223C80.0104 10.127 80.3146 10.1293 80.596 10.1293V12.766ZM86.2702 17.0059C86.1064 17.109 85.9564 17.1981 85.8202 17.2731C85.6846 17.3433 85.5484 17.3996 85.4122 17.4418C85.2766 17.4887 85.1362 17.5215 84.9904 17.5403C84.8452 17.5637 84.6862 17.5754 84.5122 17.5754C84.0766 17.5754 83.6854 17.5168 83.338 17.3996C82.996 17.2778 82.7056 17.1137 82.4662 16.9074C82.2322 16.6965 82.0516 16.4504 81.925 16.1691C81.7984 15.8832 81.7354 15.5738 81.7354 15.241C81.7354 14.9035 81.7984 14.5918 81.925 14.3059C82.0564 14.0199 82.2436 13.7762 82.4872 13.5746C82.7314 13.3683 83.029 13.209 83.3806 13.0965C83.7364 12.9793 84.142 12.9207 84.5968 12.9207C84.9298 12.9207 85.2322 12.9395 85.504 12.977C85.7806 13.0098 86.0362 13.052 86.2702 13.1035V12.8785C86.2702 12.6957 86.2354 12.5387 86.1646 12.4074C86.0944 12.2715 85.996 12.1613 85.8694 12.077C85.7428 11.9879 85.5904 11.9246 85.4122 11.8871C85.2346 11.8449 85.0396 11.8238 84.829 11.8238C84.388 11.8238 83.9992 11.8683 83.662 11.9574C83.329 12.0418 83.008 12.166 82.6984 12.3301L82.0234 10.966C82.5016 10.6379 83.0008 10.3871 83.521 10.2137C84.046 10.0403 84.6016 9.9535 85.1872 9.9535C85.642 9.9535 86.062 10.0051 86.446 10.1082C86.8354 10.2066 87.1678 10.3707 87.4444 10.6004C87.721 10.8254 87.9364 11.1207 88.0912 11.4863C88.2508 11.852 88.3306 12.2973 88.3306 12.8223V15.4731H89.308V17.3996H86.2702V17.0059ZM84.667 15.916C85 15.916 85.3024 15.8621 85.5742 15.7543C85.846 15.6465 86.0782 15.5153 86.2702 15.3606V14.4324H84.583C84.475 14.4324 84.3694 14.4488 84.2662 14.4816C84.163 14.5145 84.0694 14.5613 83.9854 14.6223C83.9056 14.6832 83.8396 14.7582 83.788 14.8473C83.7412 14.9363 83.7178 15.0395 83.7178 15.1566C83.7178 15.3723 83.7952 15.5528 83.95 15.6981C84.1096 15.8433 84.3484 15.916 84.667 15.916ZM97.4008 12.766H95.425V12.0137C95.233 12.0137 95.0572 12.0278 94.8976 12.0559C94.738 12.0793 94.5976 12.1215 94.4758 12.1824C94.3588 12.2433 94.258 12.3278 94.1734 12.4356C94.0936 12.5433 94.0372 12.677 94.0048 12.8363V15.4731H95.488V17.3996H90.7354V15.4731H91.825V12.0418H90.7492V10.1153H93.9904V10.6285C94.1968 10.4645 94.429 10.3379 94.6864 10.2488C94.9444 10.1598 95.2258 10.1153 95.5306 10.1153C95.8396 10.1153 96.1588 10.1176 96.4864 10.1223C96.8146 10.127 97.1194 10.1293 97.4008 10.1293V12.766ZM98.392 10.1153H101.964V12.0418H101.402L102.449 14.7699L103.525 12.0418H102.899V10.1153H106.471V12.0418H105.677L102.857 18.7848H104.109V20.7113H99.5872V18.7848H100.86L101.409 17.3996L99.1306 12.0418H98.392V10.1153Z" fill="#262A37"/>
</g>
<defs>
<linearGradient id="paint0_linear_5038_12574" x1="4.80078" y1="4.7998" x2="18.9301" y2="24.197" gradientUnits="userSpaceOnUse">
<stop stop-color="#57AEFF"/>
<stop offset="1" stop-color="#AEE7FF"/>
</linearGradient>
<linearGradient id="paint1_linear_5038_12574" x1="14.4" y1="4.21085e-07" x2="0.270724" y2="19.3972" gradientUnits="userSpaceOnUse">
<stop stop-color="#FC4747" stop-opacity="0.3"/>
<stop offset="1" stop-color="#FC4747"/>
</linearGradient>
<clipPath id="clip0_5038_12574">
<rect width="106.8" height="24" fill="white"/>
</clipPath>
</defs>
</svg>
